<?xml version="1.0" encoding="utf-8" standalone="no"?>
<!DOCTYPE svg PUBLIC "-//W3C//DTD SVG 1.1//EN"
  "http://www.w3.org/Graphics/SVG/1.1/DTD/svg11.dtd">
<svg xmlns:xlink="http://www.w3.org/1999/xlink" width="576pt" height="360pt" viewBox="0 0 576 360" xmlns="http://www.w3.org/2000/svg" version="1.1">
 <metadata>
  <rdf:RDF xmlns:dc="http://purl.org/dc/elements/1.1/" xmlns:cc="http://creativecommons.org/ns#" xmlns:rdf="http://www.w3.org/1999/02/22-rdf-syntax-ns#">
   <cc:Work>
    <dc:type rdf:resource="http://purl.org/dc/dcmitype/StillImage"/>
    <dc:date>2026-09-11T18:06:53.548015</dc:date>
    <dc:format>image/svg+xml</dc:format>
    <dc:creator>
     <cc:Agent>
      <dc:title>Matplotlib v3.11.1, https://matplotlib.org/</dc:title>
     </cc:Agent>
    </dc:creator>
   </cc:Work>
  </rdf:RDF>
 </metadata>
 <defs>
  <style type="text/css">*{stroke-linejoin: round; stroke-linecap: butt}</style>
 </defs>
 <g id="figure_1">
  <g id="patch_1">
   <path d="M 0 360 
L 576 360 
L 576 0 
L 0 0 
z
" style="fill: #ffffff"/>
  </g>
  <g id="axes_1">
   <g id="patch_2">
    <path d="M 45.082344 317.877656 
L 565.2 317.877656 
L 565.2 26.16 
L 45.082344 26.16 
z
" style="fill: #ffffff"/>
   </g>
   <g id="matplotlib.axis_1">
    <g id="xtick_1">
     <g id="line2d_1">
      <path d="M 68.189417 317.877656 
L 68.189417 26.16 
" clip-path="url(#pe8318e6c71)" style="fill: none; stroke: #b0b0b0; stroke-opacity: 0.3; stroke-width: 0.8; stroke-linecap: square"/>
     </g>
     <g id="line2d_2">
      <defs>
       <path id="m0424e8d899" d="M 0 0 
L 0 3.5 
" style="stroke: #000000; stroke-width: 0.8"/>
      </defs>
      <g>
       <use xlink:href="#m0424e8d899" x="68.189417" y="317.877656" style="stroke: #000000; stroke-width: 0.8"/>
      </g>
     </g>
     <g id="text_1">
      <!-- 0 -->
      <g transform="translate(65.008167 332.475312) scale(0.1 -0.1)">
       <defs>
        <path id="DejaVuSans-13" d="M 2034 4250 
Q 1547 4250 1301 3770 
Q 1056 3291 1056 2328 
Q 1056 1369 1301 889 
Q 1547 409 2034 409 
Q 2525 409 2770 889 
Q 3016 1369 3016 2328 
Q 3016 3291 2770 3770 
Q 2525 4250 2034 4250 
z
M 2034 4750 
Q 2819 4750 3233 4129 
Q 3647 3509 3647 2328 
Q 3647 1150 3233 529 
Q 2819 -91 2034 -91 
Q 1250 -91 836 529 
Q 422 1150 422 2328 
Q 422 3509 836 4129 
Q 1250 4750 2034 4750 
z
" transform="scale(0.015625)"/>
       </defs>
       <use xlink:href="#DejaVuSans-13"/>
      </g>
     </g>
    </g>
    <g id="xtick_2">
     <g id="line2d_3">
      <path d="M 175.117104 317.877656 
L 175.117104 26.16 
" clip-path="url(#pe8318e6c71)" style="fill: none; stroke: #b0b0b0; stroke-opacity: 0.3; stroke-width: 0.8; stroke-linecap: square"/>
     </g>
     <g id="line2d_4">
      <g>
       <use xlink:href="#m0424e8d899" x="175.117104" y="317.877656" style="stroke: #000000; stroke-width: 0.8"/>
      </g>
     </g>
     <g id="text_2">
      <!-- 20 -->
      <g transform="translate(168.754604 332.475312) scale(0.1 -0.1)">
       <defs>
        <path id="DejaVuSans-15" d="M 1228 531 
L 3431 531 
L 3431 0 
L 469 0 
L 469 531 
Q 828 903 1448 1529 
Q 2069 2156 2228 2338 
Q 2531 2678 2651 2914 
Q 2772 3150 2772 3378 
Q 2772 3750 2511 3984 
Q 2250 4219 1831 4219 
Q 1534 4219 1204 4116 
Q 875 4013 500 3803 
L 500 4441 
Q 881 4594 1212 4672 
Q 1544 4750 1819 4750 
Q 2544 4750 2975 4387 
Q 3406 4025 3406 3419 
Q 3406 3131 3298 2873 
Q 3191 2616 2906 2266 
Q 2828 2175 2409 1742 
Q 1991 1309 1228 531 
z
" transform="scale(0.015625)"/>
       </defs>
       <use xlink:href="#DejaVuSans-15"/>
       <use xlink:href="#DejaVuSans-13" transform="translate(63.625 0)"/>
      </g>
     </g>
    </g>
    <g id="xtick_3">
     <g id="line2d_5">
      <path d="M 282.044791 317.877656 
L 282.044791 26.16 
" clip-path="url(#pe8318e6c71)" style="fill: none; stroke: #b0b0b0; stroke-opacity: 0.3; stroke-width: 0.8; stroke-linecap: square"/>
     </g>
     <g id="line2d_6">
      <g>
       <use xlink:href="#m0424e8d899" x="282.044791" y="317.877656" style="stroke: #000000; stroke-width: 0.8"/>
      </g>
     </g>
     <g id="text_3">
      <!-- 40 -->
      <g transform="translate(275.682291 332.475312) scale(0.1 -0.1)">
       <defs>
        <path id="DejaVuSans-17" d="M 2419 4116 
L 825 1625 
L 2419 1625 
L 2419 4116 
z
M 2253 4666 
L 3047 4666 
L 3047 1625 
L 3713 1625 
L 3713 1100 
L 3047 1100 
L 3047 0 
L 2419 0 
L 2419 1100 
L 313 1100 
L 313 1709 
L 2253 4666 
z
" transform="scale(0.015625)"/>
       </defs>
       <use xlink:href="#DejaVuSans-17"/>
       <use xlink:href="#DejaVuSans-13" transform="translate(63.625 0)"/>
      </g>
     </g>
    </g>
    <g id="xtick_4">
     <g id="line2d_7">
      <path d="M 388.972479 317.877656 
L 388.972479 26.16 
" clip-path="url(#pe8318e6c71)" style="fill: none; stroke: #b0b0b0; stroke-opacity: 0.3; stroke-width: 0.8; stroke-linecap: square"/>
     </g>
     <g id="line2d_8">
      <g>
       <use xlink:href="#m0424e8d899" x="388.972479" y="317.877656" style="stroke: #000000; stroke-width: 0.8"/>
      </g>
     </g>
     <g id="text_4">
      <!-- 60 -->
      <g transform="translate(382.609979 332.475312) scale(0.1 -0.1)">
       <defs>
        <path id="DejaVuSans-19" d="M 2113 2584 
Q 1688 2584 1439 2293 
Q 1191 2003 1191 1497 
Q 1191 994 1439 701 
Q 1688 409 2113 409 
Q 2538 409 2786 701 
Q 3034 994 3034 1497 
Q 3034 2003 2786 2293 
Q 2538 2584 2113 2584 
z
M 3366 4563 
L 3366 3988 
Q 3128 4100 2886 4159 
Q 2644 4219 2406 4219 
Q 1781 4219 1451 3797 
Q 1122 3375 1075 2522 
Q 1259 2794 1537 2939 
Q 1816 3084 2150 3084 
Q 2853 3084 3261 2657 
Q 3669 2231 3669 1497 
Q 3669 778 3244 343 
Q 2819 -91 2113 -91 
Q 1303 -91 875 529 
Q 447 1150 447 2328 
Q 447 3434 972 4092 
Q 1497 4750 2381 4750 
Q 2619 4750 2861 4703 
Q 3103 4656 3366 4563 
z
" transform="scale(0.015625)"/>
       </defs>
       <use xlink:href="#DejaVuSans-19"/>
       <use xlink:href="#DejaVuSans-13" transform="translate(63.625 0)"/>
      </g>
     </g>
    </g>
    <g id="xtick_5">
     <g id="line2d_9">
      <path d="M 495.900166 317.877656 
L 495.900166 26.16 
" clip-path="url(#pe8318e6c71)" style="fill: none; stroke: #b0b0b0; stroke-opacity: 0.3; stroke-width: 0.8; stroke-linecap: square"/>
     </g>
     <g id="line2d_10">
      <g>
       <use xlink:href="#m0424e8d899" x="495.900166" y="317.877656" style="stroke: #000000; stroke-width: 0.8"/>
      </g>
     </g>
     <g id="text_5">
      <!-- 80 -->
      <g transform="translate(489.537666 332.475312) scale(0.1 -0.1)">
       <defs>
        <path id="DejaVuSans-1b" d="M 2034 2216 
Q 1584 2216 1326 1975 
Q 1069 1734 1069 1313 
Q 1069 891 1326 650 
Q 1584 409 2034 409 
Q 2484 409 2743 651 
Q 3003 894 3003 1313 
Q 3003 1734 2745 1975 
Q 2488 2216 2034 2216 
z
M 1403 2484 
Q 997 2584 770 2862 
Q 544 3141 544 3541 
Q 544 4100 942 4425 
Q 1341 4750 2034 4750 
Q 2731 4750 3128 4425 
Q 3525 4100 3525 3541 
Q 3525 3141 3298 2862 
Q 3072 2584 2669 2484 
Q 3125 2378 3379 2068 
Q 3634 1759 3634 1313 
Q 3634 634 3220 271 
Q 2806 -91 2034 -91 
Q 1263 -91 848 271 
Q 434 634 434 1313 
Q 434 1759 690 2068 
Q 947 2378 1403 2484 
z
M 1172 3481 
Q 1172 3119 1398 2916 
Q 1625 2713 2034 2713 
Q 2441 2713 2670 2916 
Q 2900 3119 2900 3481 
Q 2900 3844 2670 4047 
Q 2441 4250 2034 4250 
Q 1625 4250 1398 4047 
Q 1172 3844 1172 3481 
z
" transform="scale(0.015625)"/>
       </defs>
       <use xlink:href="#DejaVuSans-1b"/>
       <use xlink:href="#DejaVuSans-13" transform="translate(63.625 0)"/>
      </g>
     </g>
    </g>
    <g id="text_6">
     <!-- X1 (працезатрати) -->
     <g transform="translate(256.022422 346.475312) scale(0.1 -0.1)">
      <defs>
       <path id="DejaVuSans-3b" d="M 403 4666 
L 1081 4666 
L 2241 2931 
L 3406 4666 
L 4084 4666 
L 2584 2425 
L 4184 0 
L 3506 0 
L 2194 1984 
L 872 0 
L 191 0 
L 1856 2491 
L 403 4666 
z
" transform="scale(0.015625)"/>
       <path id="DejaVuSans-14" d="M 794 531 
L 1825 531 
L 1825 4091 
L 703 3866 
L 703 4441 
L 1819 4666 
L 2450 4666 
L 2450 531 
L 3481 531 
L 3481 0 
L 794 0 
L 794 531 
z
" transform="scale(0.015625)"/>
       <path id="DejaVuSans-3" transform="scale(0.015625)"/>
       <path id="DejaVuSans-b" d="M 1984 4856 
Q 1566 4138 1362 3434 
Q 1159 2731 1159 2009 
Q 1159 1288 1364 580 
Q 1569 -128 1984 -844 
L 1484 -844 
Q 1016 -109 783 600 
Q 550 1309 550 2009 
Q 550 2706 781 3412 
Q 1013 4119 1484 4856 
L 1984 4856 
z
" transform="scale(0.015625)"/>
       <path id="DejaVuSans-3d3" d="M 3603 3500 
L 3603 0 
L 3025 0 
L 3025 3041 
L 1159 3041 
L 1159 0 
L 581 0 
L 581 3500 
L 3603 3500 
z
" transform="scale(0.015625)"/>
       <path id="DejaVuSans-3d4" d="M 1159 525 
L 1159 -1331 
L 581 -1331 
L 581 3500 
L 1159 3500 
L 1159 2969 
Q 1341 3281 1617 3432 
Q 1894 3584 2278 3584 
Q 2916 3584 3314 3078 
Q 3713 2572 3713 1747 
Q 3713 922 3314 415 
Q 2916 -91 2278 -91 
Q 1894 -91 1617 61 
Q 1341 213 1159 525 
z
M 3116 1747 
Q 3116 2381 2855 2742 
Q 2594 3103 2138 3103 
Q 1681 3103 1420 2742 
Q 1159 2381 1159 1747 
Q 1159 1113 1420 752 
Q 1681 391 2138 391 
Q 2594 391 2855 752 
Q 3116 1113 3116 1747 
z
" transform="scale(0.015625)"/>
       <path id="DejaVuSans-3c4" d="M 2194 1759 
Q 1497 1759 1228 1600 
Q 959 1441 959 1056 
Q 959 750 1161 570 
Q 1363 391 1709 391 
Q 2188 391 2477 730 
Q 2766 1069 2766 1631 
L 2766 1759 
L 2194 1759 
z
M 3341 1997 
L 3341 0 
L 2766 0 
L 2766 531 
Q 2569 213 2275 61 
Q 1981 -91 1556 -91 
Q 1019 -91 701 211 
Q 384 513 384 1019 
Q 384 1609 779 1909 
Q 1175 2209 1959 2209 
L 2766 2209 
L 2766 2266 
Q 2766 2663 2505 2880 
Q 2244 3097 1772 3097 
Q 1472 3097 1187 3025 
Q 903 2953 641 2809 
L 641 3341 
Q 956 3463 1253 3523 
Q 1550 3584 1831 3584 
Q 2591 3584 2966 3190 
Q 3341 2797 3341 1997 
z
" transform="scale(0.015625)"/>
       <path id="DejaVuSans-3da" d="M 3603 0 
L 581 0 
L 581 3500 
L 1159 3500 
L 1159 459 
L 3025 459 
L 3025 3500 
L 3603 3500 
L 3603 459 
L 4063 459 
L 4063 -884 
L 3603 -884 
L 3603 0 
z
" transform="scale(0.015625)"/>
       <path id="DejaVuSans-3c9" d="M 3597 1894 
L 3597 1613 
L 953 1613 
Q 991 1019 1311 708 
Q 1631 397 2203 397 
Q 2534 397 2845 478 
Q 3156 559 3463 722 
L 3463 178 
Q 3153 47 2828 -22 
Q 2503 -91 2169 -91 
Q 1331 -91 842 396 
Q 353 884 353 1716 
Q 353 2575 817 3079 
Q 1281 3584 2069 3584 
Q 2775 3584 3186 3129 
Q 3597 2675 3597 1894 
z
M 3022 2063 
Q 3016 2534 2758 2815 
Q 2500 3097 2075 3097 
Q 1594 3097 1305 2825 
Q 1016 2553 972 2059 
L 3022 2063 
z
" transform="scale(0.015625)"/>
       <path id="DejaVuSans-3cb" d="M 2206 1888 
Q 2594 1813 2809 1584 
Q 3025 1356 3025 1019 
Q 3025 478 2622 193 
Q 2219 -91 1475 -91 
Q 1225 -91 961 -47 
Q 697 -3 416 84 
L 416 619 
Q 638 503 903 445 
Q 1169 388 1459 388 
Q 1931 388 2195 563 
Q 2459 738 2459 1019 
Q 2459 1294 2225 1461 
Q 1991 1628 1563 1628 
L 1100 1628 
L 1100 2103 
L 1584 2103 
Q 1947 2103 2158 2242 
Q 2369 2381 2369 2600 
Q 2369 2800 2151 2944 
Q 1934 3088 1563 3088 
Q 1341 3088 1089 3047 
Q 838 3006 534 2916 
L 534 3438 
Q 841 3513 1106 3550 
Q 1372 3588 1609 3588 
Q 2222 3588 2576 3342 
Q 2931 3097 2931 2656 
Q 2931 2366 2743 2164 
Q 2556 1963 2206 1888 
z
" transform="scale(0.015625)"/>
       <path id="DejaVuSans-3d6" d="M 188 3500 
L 3541 3500 
L 3541 3041 
L 2147 3041 
L 2147 0 
L 1581 0 
L 1581 3041 
L 188 3041 
L 188 3500 
z
" transform="scale(0.015625)"/>
       <path id="DejaVuSans-3cc" d="M 3578 3500 
L 3578 0 
L 3006 0 
L 3006 2809 
L 1319 0 
L 581 0 
L 581 3500 
L 1153 3500 
L 1153 697 
L 2838 3500 
L 3578 3500 
z
" transform="scale(0.015625)"/>
       <path id="DejaVuSans-c" d="M 513 4856 
L 1013 4856 
Q 1481 4119 1714 3412 
Q 1947 2706 1947 2009 
Q 1947 1309 1714 600 
Q 1481 -109 1013 -844 
L 513 -844 
Q 928 -128 1133 580 
Q 1338 1288 1338 2009 
Q 1338 2731 1133 3434 
Q 928 4138 513 4856 
z
" transform="scale(0.015625)"/>
      </defs>
      <use xlink:href="#DejaVuSans-3b"/>
      <use xlink:href="#DejaVuSans-14" transform="translate(68.5 0)"/>
      <use xlink:href="#DejaVuSans-3" transform="translate(132.125 0)"/>
      <use xlink:href="#DejaVuSans-b" transform="translate(163.90625 0)"/>
      <use xlink:href="#DejaVuSans-3d3" transform="translate(202.921875 0)"/>
      <use xlink:href="#DejaVuSans-3d4" transform="translate(268.296875 0)"/>
      <use xlink:href="#DejaVuSans-3c4" transform="translate(331.78125 0)"/>
      <use xlink:href="#DejaVuSans-3da" transform="translate(393.0625 0)"/>
      <use xlink:href="#DejaVuSans-3c9" transform="translate(461.125 0)"/>
      <use xlink:href="#DejaVuSans-3cb" transform="translate(522.65625 0)"/>
      <use xlink:href="#DejaVuSans-3c4" transform="translate(575.828125 0)"/>
      <use xlink:href="#DejaVuSans-3d6" transform="translate(637.109375 0)"/>
      <use xlink:href="#DejaVuSans-3d4" transform="translate(695.359375 0)"/>
      <use xlink:href="#DejaVuSans-3c4" transform="translate(758.84375 0)"/>
      <use xlink:href="#DejaVuSans-3d6" transform="translate(820.125 0)"/>
      <use xlink:href="#DejaVuSans-3cc" transform="translate(878.375 0)"/>
      <use xlink:href="#DejaVuSans-c" transform="translate(943.359375 0)"/>
     </g>
    </g>
   </g>
   <g id="matplotlib.axis_2">
    <g id="ytick_1">
     <g id="line2d_11">
      <path d="M 45.082344 305.675487 
L 565.2 305.675487 
" clip-path="url(#pe8318e6c71)" style="fill: none; stroke: #b0b0b0; stroke-opacity: 0.3; stroke-width: 0.8; stroke-linecap: square"/>
     </g>
     <g id="line2d_12">
      <defs>
       <path id="mef972d3be2" d="M 0 0 
L -3.5 0 
" style="stroke: #000000; stroke-width: 0.8"/>
      </defs>
      <g>
       <use xlink:href="#mef972d3be2" x="45.082344" y="305.675487" style="stroke: #000000; stroke-width: 0.8"/>
      </g>
     </g>
     <g id="text_7">
      <!-- 40 -->
      <g transform="translate(25.357344 309.474315) scale(0.1 -0.1)">
       <use xlink:href="#DejaVuSans-17"/>
       <use xlink:href="#DejaVuSans-13" transform="translate(63.625 0)"/>
      </g>
     </g>
    </g>
    <g id="ytick_2">
     <g id="line2d_13">
      <path d="M 45.082344 273.152601 
L 565.2 273.152601 
" clip-path="url(#pe8318e6c71)" style="fill: none; stroke: #b0b0b0; stroke-opacity: 0.3; stroke-width: 0.8; stroke-linecap: square"/>
     </g>
     <g id="line2d_14">
      <g>
       <use xlink:href="#mef972d3be2" x="45.082344" y="273.152601" style="stroke: #000000; stroke-width: 0.8"/>
      </g>
     </g>
     <g id="text_8">
      <!-- 45 -->
      <g transform="translate(25.357344 276.951429) scale(0.1 -0.1)">
       <defs>
        <path id="DejaVuSans-18" d="M 691 4666 
L 3169 4666 
L 3169 4134 
L 1269 4134 
L 1269 2991 
Q 1406 3038 1543 3061 
Q 1681 3084 1819 3084 
Q 2600 3084 3056 2656 
Q 3513 2228 3513 1497 
Q 3513 744 3044 326 
Q 2575 -91 1722 -91 
Q 1428 -91 1123 -41 
Q 819 9 494 109 
L 494 744 
Q 775 591 1075 516 
Q 1375 441 1709 441 
Q 2250 441 2565 725 
Q 2881 1009 2881 1497 
Q 2881 1984 2565 2268 
Q 2250 2553 1709 2553 
Q 1456 2553 1204 2497 
Q 953 2441 691 2322 
L 691 4666 
z
" transform="scale(0.015625)"/>
       </defs>
       <use xlink:href="#DejaVuSans-17"/>
       <use xlink:href="#DejaVuSans-18" transform="translate(63.625 0)"/>
      </g>
     </g>
    </g>
    <g id="ytick_3">
     <g id="line2d_15">
      <path d="M 45.082344 240.629714 
L 565.2 240.629714 
" clip-path="url(#pe8318e6c71)" style="fill: none; stroke: #b0b0b0; stroke-opacity: 0.3; stroke-width: 0.8; stroke-linecap: square"/>
     </g>
     <g id="line2d_16">
      <g>
       <use xlink:href="#mef972d3be2" x="45.082344" y="240.629714" style="stroke: #000000; stroke-width: 0.8"/>
      </g>
     </g>
     <g id="text_9">
      <!-- 50 -->
      <g transform="translate(25.357344 244.428543) scale(0.1 -0.1)">
       <use xlink:href="#DejaVuSans-18"/>
       <use xlink:href="#DejaVuSans-13" transform="translate(63.625 0)"/>
      </g>
     </g>
    </g>
    <g id="ytick_4">
     <g id="line2d_17">
      <path d="M 45.082344 208.106828 
L 565.2 208.106828 
" clip-path="url(#pe8318e6c71)" style="fill: none; stroke: #b0b0b0; stroke-opacity: 0.3; stroke-width: 0.8; stroke-linecap: square"/>
     </g>
     <g id="line2d_18">
      <g>
       <use xlink:href="#mef972d3be2" x="45.082344" y="208.106828" style="stroke: #000000; stroke-width: 0.8"/>
      </g>
     </g>
     <g id="text_10">
      <!-- 55 -->
      <g transform="translate(25.357344 211.905656) scale(0.1 -0.1)">
       <use xlink:href="#DejaVuSans-18"/>
       <use xlink:href="#DejaVuSans-18" transform="translate(63.625 0)"/>
      </g>
     </g>
    </g>
    <g id="ytick_5">
     <g id="line2d_19">
      <path d="M 45.082344 175.583942 
L 565.2 175.583942 
" clip-path="url(#pe8318e6c71)" style="fill: none; stroke: #b0b0b0; stroke-opacity: 0.3; stroke-width: 0.8; stroke-linecap: square"/>
     </g>
     <g id="line2d_20">
      <g>
       <use xlink:href="#mef972d3be2" x="45.082344" y="175.583942" style="stroke: #000000; stroke-width: 0.8"/>
      </g>
     </g>
     <g id="text_11">
      <!-- 60 -->
      <g transform="translate(25.357344 179.38277) scale(0.1 -0.1)">
       <use xlink:href="#DejaVuSans-19"/>
       <use xlink:href="#DejaVuSans-13" transform="translate(63.625 0)"/>
      </g>
     </g>
    </g>
    <g id="ytick_6">
     <g id="line2d_21">
      <path d="M 45.082344 143.061056 
L 565.2 143.061056 
" clip-path="url(#pe8318e6c71)" style="fill: none; stroke: #b0b0b0; stroke-opacity: 0.3; stroke-width: 0.8; stroke-linecap: square"/>
     </g>
     <g id="line2d_22">
      <g>
       <use xlink:href="#mef972d3be2" x="45.082344" y="143.061056" style="stroke: #000000; stroke-width: 0.8"/>
      </g>
     </g>
     <g id="text_12">
      <!-- 65 -->
      <g transform="translate(25.357344 146.859884) scale(0.1 -0.1)">
       <use xlink:href="#DejaVuSans-19"/>
       <use xlink:href="#DejaVuSans-18" transform="translate(63.625 0)"/>
      </g>
     </g>
    </g>
    <g id="ytick_7">
     <g id="line2d_23">
      <path d="M 45.082344 110.538169 
L 565.2 110.538169 
" clip-path="url(#pe8318e6c71)" style="fill: none; stroke: #b0b0b0; stroke-opacity: 0.3; stroke-width: 0.8; stroke-linecap: square"/>
     </g>
     <g id="line2d_24">
      <g>
       <use xlink:href="#mef972d3be2" x="45.082344" y="110.538169" style="stroke: #000000; stroke-width: 0.8"/>
      </g>
     </g>
     <g id="text_13">
      <!-- 70 -->
      <g transform="translate(25.357344 114.336997) scale(0.1 -0.1)">
       <defs>
        <path id="DejaVuSans-1a" d="M 525 4666 
L 3525 4666 
L 3525 4397 
L 1831 0 
L 1172 0 
L 2766 4134 
L 525 4134 
L 525 4666 
z
" transform="scale(0.015625)"/>
       </defs>
       <use xlink:href="#DejaVuSans-1a"/>
       <use xlink:href="#DejaVuSans-13" transform="translate(63.625 0)"/>
      </g>
     </g>
    </g>
    <g id="ytick_8">
     <g id="line2d_25">
      <path d="M 45.082344 78.015283 
L 565.2 78.015283 
" clip-path="url(#pe8318e6c71)" style="fill: none; stroke: #b0b0b0; stroke-opacity: 0.3; stroke-width: 0.8; stroke-linecap: square"/>
     </g>
     <g id="line2d_26">
      <g>
       <use xlink:href="#mef972d3be2" x="45.082344" y="78.015283" style="stroke: #000000; stroke-width: 0.8"/>
      </g>
     </g>
     <g id="text_14">
      <!-- 75 -->
      <g transform="translate(25.357344 81.814111) scale(0.1 -0.1)">
       <use xlink:href="#DejaVuSans-1a"/>
       <use xlink:href="#DejaVuSans-18" transform="translate(63.625 0)"/>
      </g>
     </g>
    </g>
    <g id="ytick_9">
     <g id="line2d_27">
      <path d="M 45.082344 45.492397 
L 565.2 45.492397 
" clip-path="url(#pe8318e6c71)" style="fill: none; stroke: #b0b0b0; stroke-opacity: 0.3; stroke-width: 0.8; stroke-linecap: square"/>
     </g>
     <g id="line2d_28">
      <g>
       <use xlink:href="#mef972d3be2" x="45.082344" y="45.492397" style="stroke: #000000; stroke-width: 0.8"/>
      </g>
     </g>
     <g id="text_15">
      <!-- 80 -->
      <g transform="translate(25.357344 49.291225) scale(0.1 -0.1)">
       <use xlink:href="#DejaVuSans-1b"/>
       <use xlink:href="#DejaVuSans-13" transform="translate(63.625 0)"/>
      </g>
     </g>
    </g>
    <g id="text_16">
     <!-- X2 (основні фонди) -->
     <g transform="translate(18.955 222.755547) rotate(-90) scale(0.1 -0.1)">
      <defs>
       <path id="DejaVuSans-3d2" d="M 1959 3097 
Q 1497 3097 1228 2736 
Q 959 2375 959 1747 
Q 959 1119 1226 758 
Q 1494 397 1959 397 
Q 2419 397 2687 759 
Q 2956 1122 2956 1747 
Q 2956 2369 2687 2733 
Q 2419 3097 1959 3097 
z
M 1959 3584 
Q 2709 3584 3137 3096 
Q 3566 2609 3566 1747 
Q 3566 888 3137 398 
Q 2709 -91 1959 -91 
Q 1206 -91 779 398 
Q 353 888 353 1747 
Q 353 2609 779 3096 
Q 1206 3584 1959 3584 
z
" transform="scale(0.015625)"/>
       <path id="DejaVuSans-3d5" d="M 3122 3366 
L 3122 2828 
Q 2878 2963 2633 3030 
Q 2388 3097 2138 3097 
Q 1578 3097 1268 2742 
Q 959 2388 959 1747 
Q 959 1106 1268 751 
Q 1578 397 2138 397 
Q 2388 397 2633 464 
Q 2878 531 3122 666 
L 3122 134 
Q 2881 22 2623 -34 
Q 2366 -91 2075 -91 
Q 1284 -91 818 406 
Q 353 903 353 1747 
Q 353 2603 823 3093 
Q 1294 3584 2113 3584 
Q 2378 3584 2631 3529 
Q 2884 3475 3122 3366 
z
" transform="scale(0.015625)"/>
       <path id="DejaVuSans-3d1" d="M 581 3500 
L 1159 3500 
L 1159 2072 
L 3025 2072 
L 3025 3500 
L 3603 3500 
L 3603 0 
L 3025 0 
L 3025 1613 
L 1159 1613 
L 1159 0 
L 581 0 
L 581 3500 
z
" transform="scale(0.015625)"/>
       <path id="DejaVuSans-3c6" d="M 1156 1613 
L 1156 459 
L 1975 459 
Q 2369 459 2575 607 
Q 2781 756 2781 1038 
Q 2781 1319 2575 1466 
Q 2369 1613 1975 1613 
L 1156 1613 
z
M 1156 3041 
L 1156 2072 
L 1913 2072 
Q 2238 2072 2444 2201 
Q 2650 2331 2650 2563 
Q 2650 2794 2444 2917 
Q 2238 3041 1913 3041 
L 1156 3041 
z
M 581 3500 
L 1950 3500 
Q 2566 3500 2897 3275 
Q 3228 3050 3228 2634 
Q 3228 2313 3059 2123 
Q 2891 1934 2559 1888 
Q 2956 1813 3175 1575 
Q 3394 1338 3394 981 
Q 3394 513 3033 256 
Q 2672 0 2003 0 
L 581 0 
L 581 3500 
z
" transform="scale(0.015625)"/>
       <path id="DejaVuSans-3ea" d="M 603 3500 
L 1178 3500 
L 1178 0 
L 603 0 
L 603 3500 
z
M 603 4863 
L 1178 4863 
L 1178 4134 
L 603 4134 
L 603 4863 
z
" transform="scale(0.015625)"/>
       <path id="DejaVuSans-3d8" d="M 947 1747 
Q 947 1013 1173 702 
Q 1400 391 1784 391 
Q 2091 391 2447 916 
L 2447 2578 
Q 2091 3103 1784 3103 
Q 1400 3103 1173 2792 
Q 947 2481 947 1747 
z
M 2447 -1331 
L 2447 447 
Q 2269 153 2064 31 
Q 1859 -91 1600 -91 
Q 1078 -91 714 392 
Q 350 875 350 1734 
Q 350 2594 714 3089 
Q 1078 3584 1600 3584 
Q 1859 3584 2064 3465 
Q 2269 3347 2447 3053 
L 2447 4666 
L 3025 4666 
L 3025 3053 
Q 3203 3347 3408 3465 
Q 3613 3584 3872 3584 
Q 4394 3584 4758 3089 
Q 5122 2594 5122 1734 
Q 5122 875 4758 392 
Q 4394 -91 3872 -91 
Q 3613 -91 3408 31 
Q 3203 153 3025 447 
L 3025 -1331 
L 2447 -1331 
z
M 4525 1747 
Q 4525 2481 4298 2792 
Q 4072 3103 3688 3103 
Q 3381 3103 3025 2578 
L 3025 916 
Q 3381 391 3688 391 
Q 4072 391 4298 702 
Q 4525 1013 4525 1747 
z
" transform="scale(0.015625)"/>
       <path id="DejaVuSans-3c8" d="M 1384 459 
L 3053 459 
L 3053 3041 
L 1844 3041 
L 1844 2603 
Q 1844 1316 1475 628 
L 1384 459 
z
M 550 459 
Q 834 584 959 850 
Q 1266 1509 1266 2838 
L 1266 3500 
L 3631 3500 
L 3631 459 
L 4091 459 
L 4091 -884 
L 3631 -884 
L 3631 0 
L 794 0 
L 794 -884 
L 334 -884 
L 334 459 
L 550 459 
z
" transform="scale(0.015625)"/>
      </defs>
      <use xlink:href="#DejaVuSans-3b"/>
      <use xlink:href="#DejaVuSans-15" transform="translate(68.5 0)"/>
      <use xlink:href="#DejaVuSans-3" transform="translate(132.125 0)"/>
      <use xlink:href="#DejaVuSans-b" transform="translate(163.90625 0)"/>
      <use xlink:href="#DejaVuSans-3d2" transform="translate(202.921875 0)"/>
      <use xlink:href="#DejaVuSans-3d5" transform="translate(264.109375 0)"/>
      <use xlink:href="#DejaVuSans-3d1" transform="translate(319.09375 0)"/>
      <use xlink:href="#DejaVuSans-3d2" transform="translate(384.46875 0)"/>
      <use xlink:href="#DejaVuSans-3c6" transform="translate(445.65625 0)"/>
      <use xlink:href="#DejaVuSans-3d1" transform="translate(504.59375 0)"/>
      <use xlink:href="#DejaVuSans-3ea" transform="translate(569.96875 0)"/>
      <use xlink:href="#DejaVuSans-3" transform="translate(597.75 0)"/>
      <use xlink:href="#DejaVuSans-3d8" transform="translate(629.53125 0)"/>
      <use xlink:href="#DejaVuSans-3d2" transform="translate(715.03125 0)"/>
      <use xlink:href="#DejaVuSans-3d1" transform="translate(776.21875 0)"/>
      <use xlink:href="#DejaVuSans-3c8" transform="translate(841.59375 0)"/>
      <use xlink:href="#DejaVuSans-3cc" transform="translate(910.734375 0)"/>
      <use xlink:href="#DejaVuSans-c" transform="translate(975.71875 0)"/>
     </g>
    </g>
   </g>
   <g id="line2d_29">
    <path d="M 175.117104 67.042564 
L 179.835356 77.123826 
L 184.553607 86.596418 
L 189.271858 95.519614 
L 193.99011 103.94489 
L 198.708361 111.917193 
L 203.426612 119.475975 
L 208.144864 126.656024 
L 212.863115 133.488154 
L 217.581366 139.99977 
L 222.299618 146.215339 
L 228.59062 154.079813 
L 234.881621 161.502672 
L 241.172623 168.524024 
L 247.463625 175.179043 
L 253.754627 181.498722 
L 260.045629 187.510495 
L 266.336631 193.238742 
L 272.627632 198.70522 
L 278.918634 203.929408 
L 286.782386 210.145423 
L 294.646139 216.04054 
L 302.509891 221.641632 
L 310.373643 226.972516 
L 318.237396 232.054384 
L 326.101148 236.906167 
L 335.537651 242.448363 
L 344.974153 247.709702 
L 354.410656 252.713286 
L 363.847159 257.479634 
L 374.856412 262.764836 
L 385.865665 267.777744 
L 396.874918 272.541118 
L 407.884172 277.075132 
L 420.466175 281.998956 
L 433.048179 286.670369 
L 445.630182 291.110365 
L 459.784937 295.851852 
L 473.939691 300.347422 
L 488.094445 304.617763 
L 488.094445 304.617763 
" clip-path="url(#pe8318e6c71)" style="fill: none; stroke: #1f77b4; stroke-width: 1.5; stroke-linecap: square"/>
   </g>
   <g id="line2d_30">
    <path d="M 68.724055 219.008374 
L 78.228261 218.906998 
L 87.732467 218.623531 
L 97.236672 218.158418 
L 106.740878 217.512386 
L 116.245084 216.686441 
L 128.125341 215.402969 
L 140.005598 213.843442 
L 151.885855 212.011511 
L 163.766112 209.911381 
L 175.646369 207.547769 
L 187.526626 204.92585 
L 199.406884 202.051208 
L 211.287141 198.929785 
L 223.167398 195.56782 
L 235.047655 191.971803 
L 246.927912 188.148418 
L 258.808169 184.104497 
L 270.688426 179.84697 
L 282.568683 175.382825 
L 296.824992 169.762974 
L 311.0813 163.867731 
L 325.337609 157.709029 
L 339.593917 151.29861 
L 353.850226 144.647966 
L 368.106535 137.768293 
L 382.362843 130.670453 
L 398.995203 122.127886 
L 415.627563 113.318651 
L 432.259923 104.258015 
L 448.892283 94.960489 
L 467.900694 84.062286 
L 486.909106 72.891944 
L 505.917517 61.467545 
L 527.30198 48.332382 
L 541.558288 39.419893 
L 541.558288 39.419893 
" clip-path="url(#pe8318e6c71)" style="fill: none; stroke: #ff7f0e; stroke-width: 1.5; stroke-linecap: square"/>
   </g>
   <g id="patch_3">
    <path d="M 45.082344 317.877656 
L 45.082344 26.16 
" style="fill: none; stroke: #000000; stroke-width: 0.8; stroke-linejoin: miter; stroke-linecap: square"/>
   </g>
   <g id="patch_4">
    <path d="M 565.2 317.877656 
L 565.2 26.16 
" style="fill: none; stroke: #000000; stroke-width: 0.8; stroke-linejoin: miter; stroke-linecap: square"/>
   </g>
   <g id="patch_5">
    <path d="M 45.082344 317.877656 
L 565.2 317.877656 
" style="fill: none; stroke: #000000; stroke-width: 0.8; stroke-linejoin: miter; stroke-linecap: square"/>
   </g>
   <g id="patch_6">
    <path d="M 45.082344 26.16 
L 565.2 26.16 
" style="fill: none; stroke: #000000; stroke-width: 0.8; stroke-linejoin: miter; stroke-linecap: square"/>
   </g>
   <g id="text_17">
    <!-- Ізокванта та ізокліналь -->
    <g transform="translate(230.966172 20.16) scale(0.12 -0.12)">
     <defs>
      <path id="DejaVuSans-39a" d="M 628 4666 
L 1259 4666 
L 1259 0 
L 628 0 
L 628 4666 
z
" transform="scale(0.015625)"/>
      <path id="DejaVuSans-3ce" d="M 581 3500 
L 1153 3500 
L 1153 1856 
L 2775 3500 
L 3481 3500 
L 2144 2147 
L 3653 0 
L 3009 0 
L 1769 1766 
L 1153 1141 
L 1153 0 
L 581 0 
L 581 3500 
z
" transform="scale(0.015625)"/>
      <path id="DejaVuSans-3cf" d="M 238 0 
L 238 478 
Q 806 566 981 959 
Q 1194 1513 1194 2928 
L 1194 3500 
L 3559 3500 
L 3559 0 
L 2984 0 
L 2984 3041 
L 1769 3041 
L 1769 2694 
Q 1769 1344 1494 738 
Q 1200 91 238 0 
z
" transform="scale(0.015625)"/>
      <path id="DejaVuSans-3e0" d="M 2781 1038 
Q 2781 1319 2576 1466 
Q 2372 1613 1978 1613 
L 1159 1613 
L 1159 459 
L 1978 459 
Q 2372 459 2576 607 
Q 2781 756 2781 1038 
z
M 581 3500 
L 1159 3500 
L 1159 2072 
L 2003 2072 
Q 2672 2072 3033 1817 
Q 3394 1563 3394 1038 
Q 3394 513 3033 256 
Q 2672 0 2003 0 
L 581 0 
L 581 3500 
z
" transform="scale(0.015625)"/>
     </defs>
     <use xlink:href="#DejaVuSans-39a"/>
     <use xlink:href="#DejaVuSans-3cb" transform="translate(29.5 0)"/>
     <use xlink:href="#DejaVuSans-3d2" transform="translate(82.671875 0)"/>
     <use xlink:href="#DejaVuSans-3ce" transform="translate(143.859375 0)"/>
     <use xlink:href="#DejaVuSans-3c6" transform="translate(204.265625 0)"/>
     <use xlink:href="#DejaVuSans-3c4" transform="translate(263.203125 0)"/>
     <use xlink:href="#DejaVuSans-3d1" transform="translate(324.484375 0)"/>
     <use xlink:href="#DejaVuSans-3d6" transform="translate(389.859375 0)"/>
     <use xlink:href="#DejaVuSans-3c4" transform="translate(448.109375 0)"/>
     <use xlink:href="#DejaVuSans-3" transform="translate(509.390625 0)"/>
     <use xlink:href="#DejaVuSans-3d6" transform="translate(541.171875 0)"/>
     <use xlink:href="#DejaVuSans-3c4" transform="translate(599.421875 0)"/>
     <use xlink:href="#DejaVuSans-3" transform="translate(660.703125 0)"/>
     <use xlink:href="#DejaVuSans-3ea" transform="translate(692.484375 0)"/>
     <use xlink:href="#DejaVuSans-3cb" transform="translate(720.265625 0)"/>
     <use xlink:href="#DejaVuSans-3d2" transform="translate(773.4375 0)"/>
     <use xlink:href="#DejaVuSans-3ce" transform="translate(834.625 0)"/>
     <use xlink:href="#DejaVuSans-3cf" transform="translate(895.03125 0)"/>
     <use xlink:href="#DejaVuSans-3ea" transform="translate(958.953125 0)"/>
     <use xlink:href="#DejaVuSans-3d1" transform="translate(986.734375 0)"/>
     <use xlink:href="#DejaVuSans-3c4" transform="translate(1052.109375 0)"/>
     <use xlink:href="#DejaVuSans-3cf" transform="translate(1113.390625 0)"/>
     <use xlink:href="#DejaVuSans-3e0" transform="translate(1177.3125 0)"/>
    </g>
   </g>
   <g id="PathCollection_1">
    <defs>
     <path id="me1e84cadf3" d="M 0 3 
C 0.795609 3 1.55874 2.683901 2.12132 2.12132 
C 2.683901 1.55874 3 0.795609 3 0 
C 3 -0.795609 2.683901 -1.55874 2.12132 -2.12132 
C 1.55874 -2.683901 0.795609 -3 0 -3 
C -0.795609 -3 -1.55874 -2.683901 -2.12132 -2.12132 
C -2.683901 -1.55874 -3 -0.795609 -3 0 
C -3 0.795609 -2.683901 1.55874 -2.12132 2.12132 
C -1.55874 2.683901 -0.795609 3 0 3 
z
" style="stroke: #ff0000"/>
    </defs>
    <g clip-path="url(#pe8318e6c71)">
     <use xlink:href="#me1e84cadf3" x="282.044791" y="175.583942" style="fill: #ff0000; stroke: #ff0000"/>
    </g>
   </g>
   <g id="legend_1">
    <g id="patch_7">
     <path d="M 52.082344 312.877656 
L 233.747969 312.877656 
Q 235.747969 312.877656 235.747969 310.877656 
L 235.747969 266.875313 
Q 235.747969 264.875313 233.747969 264.875313 
L 52.082344 264.875313 
Q 50.082344 264.875313 50.082344 266.875313 
L 50.082344 310.877656 
Q 50.082344 312.877656 52.082344 312.877656 
z
" style="fill: #ffffff; opacity: 0.8; stroke: #cccccc; stroke-linejoin: miter"/>
    </g>
    <g id="line2d_31">
     <path d="M 54.082344 272.97375 
L 64.082344 272.97375 
L 74.082344 272.97375 
" style="fill: none; stroke: #1f77b4; stroke-width: 1.5; stroke-linecap: square"/>
    </g>
    <g id="text_18">
     <!-- Ізокванта Y = 95.0 -->
     <g transform="translate(82.082344 276.47375) scale(0.1 -0.1)">
      <defs>
       <path id="DejaVuSans-3c" d="M -13 4666 
L 666 4666 
L 1959 2747 
L 3244 4666 
L 3922 4666 
L 2272 2222 
L 2272 0 
L 1638 0 
L 1638 2222 
L -13 4666 
z
" transform="scale(0.015625)"/>
       <path id="DejaVuSans-20" d="M 678 2906 
L 4684 2906 
L 4684 2381 
L 678 2381 
L 678 2906 
z
M 678 1631 
L 4684 1631 
L 4684 1100 
L 678 1100 
L 678 1631 
z
" transform="scale(0.015625)"/>
       <path id="DejaVuSans-1c" d="M 703 97 
L 703 672 
Q 941 559 1184 500 
Q 1428 441 1663 441 
Q 2288 441 2617 861 
Q 2947 1281 2994 2138 
Q 2813 1869 2534 1725 
Q 2256 1581 1919 1581 
Q 1219 1581 811 2004 
Q 403 2428 403 3163 
Q 403 3881 828 4315 
Q 1253 4750 1959 4750 
Q 2769 4750 3195 4129 
Q 3622 3509 3622 2328 
Q 3622 1225 3098 567 
Q 2575 -91 1691 -91 
Q 1453 -91 1209 -44 
Q 966 3 703 97 
z
M 1959 2075 
Q 2384 2075 2632 2365 
Q 2881 2656 2881 3163 
Q 2881 3666 2632 3958 
Q 2384 4250 1959 4250 
Q 1534 4250 1286 3958 
Q 1038 3666 1038 3163 
Q 1038 2656 1286 2365 
Q 1534 2075 1959 2075 
z
" transform="scale(0.015625)"/>
       <path id="DejaVuSans-11" d="M 684 794 
L 1344 794 
L 1344 0 
L 684 0 
L 684 794 
z
" transform="scale(0.015625)"/>
      </defs>
      <use xlink:href="#DejaVuSans-39a"/>
      <use xlink:href="#DejaVuSans-3cb" transform="translate(29.5 0)"/>
      <use xlink:href="#DejaVuSans-3d2" transform="translate(82.671875 0)"/>
      <use xlink:href="#DejaVuSans-3ce" transform="translate(143.859375 0)"/>
      <use xlink:href="#DejaVuSans-3c6" transform="translate(204.265625 0)"/>
      <use xlink:href="#DejaVuSans-3c4" transform="translate(263.203125 0)"/>
      <use xlink:href="#DejaVuSans-3d1" transform="translate(324.484375 0)"/>
      <use xlink:href="#DejaVuSans-3d6" transform="translate(389.859375 0)"/>
      <use xlink:href="#DejaVuSans-3c4" transform="translate(448.109375 0)"/>
      <use xlink:href="#DejaVuSans-3" transform="translate(509.390625 0)"/>
      <use xlink:href="#DejaVuSans-3c" transform="translate(541.171875 0)"/>
      <use xlink:href="#DejaVuSans-3" transform="translate(602.25 0)"/>
      <use xlink:href="#DejaVuSans-20" transform="translate(634.03125 0)"/>
      <use xlink:href="#DejaVuSans-3" transform="translate(717.828125 0)"/>
      <use xlink:href="#DejaVuSans-1c" transform="translate(749.609375 0)"/>
      <use xlink:href="#DejaVuSans-18" transform="translate(813.234375 0)"/>
      <use xlink:href="#DejaVuSans-11" transform="translate(876.859375 0)"/>
      <use xlink:href="#DejaVuSans-13" transform="translate(908.640625 0)"/>
     </g>
    </g>
    <g id="line2d_32">
     <path d="M 54.082344 287.974531 
L 64.082344 287.974531 
L 74.082344 287.974531 
" style="fill: none; stroke: #ff7f0e; stroke-width: 1.5; stroke-linecap: square"/>
    </g>
    <g id="text_19">
     <!-- Ізокліналь через (40.0; 60.0) -->
     <g transform="translate(82.082344 291.474531) scale(0.1 -0.1)">
      <defs>
       <path id="DejaVuSans-3db" d="M 2625 0 
L 2625 1472 
L 1553 1472 
Q 1075 1472 756 1769 
Q 469 2038 469 2613 
L 469 3500 
L 1044 3500 
L 1044 2666 
Q 1044 2300 1206 2116 
Q 1372 1931 1697 1931 
L 2625 1931 
L 2625 3500 
L 3200 3500 
L 3200 0 
L 2625 0 
z
" transform="scale(0.015625)"/>
       <path id="DejaVuSans-1e" d="M 750 3309 
L 1409 3309 
L 1409 2516 
L 750 2516 
L 750 3309 
z
M 750 794 
L 1409 794 
L 1409 256 
L 897 -744 
L 494 -744 
L 750 256 
L 750 794 
z
" transform="scale(0.015625)"/>
      </defs>
      <use xlink:href="#DejaVuSans-39a"/>
      <use xlink:href="#DejaVuSans-3cb" transform="translate(29.5 0)"/>
      <use xlink:href="#DejaVuSans-3d2" transform="translate(82.671875 0)"/>
      <use xlink:href="#DejaVuSans-3ce" transform="translate(143.859375 0)"/>
      <use xlink:href="#DejaVuSans-3cf" transform="translate(204.265625 0)"/>
      <use xlink:href="#DejaVuSans-3ea" transform="translate(268.1875 0)"/>
      <use xlink:href="#DejaVuSans-3d1" transform="translate(295.96875 0)"/>
      <use xlink:href="#DejaVuSans-3c4" transform="translate(361.34375 0)"/>
      <use xlink:href="#DejaVuSans-3cf" transform="translate(422.625 0)"/>
      <use xlink:href="#DejaVuSans-3e0" transform="translate(486.546875 0)"/>
      <use xlink:href="#DejaVuSans-3" transform="translate(545.484375 0)"/>
      <use xlink:href="#DejaVuSans-3db" transform="translate(577.265625 0)"/>
      <use xlink:href="#DejaVuSans-3c9" transform="translate(636.34375 0)"/>
      <use xlink:href="#DejaVuSans-3d4" transform="translate(697.875 0)"/>
      <use xlink:href="#DejaVuSans-3c9" transform="translate(761.359375 0)"/>
      <use xlink:href="#DejaVuSans-3cb" transform="translate(822.890625 0)"/>
      <use xlink:href="#DejaVuSans-3" transform="translate(876.0625 0)"/>
      <use xlink:href="#DejaVuSans-b" transform="translate(907.84375 0)"/>
      <use xlink:href="#DejaVuSans-17" transform="translate(946.859375 0)"/>
      <use xlink:href="#DejaVuSans-13" transform="translate(1010.484375 0)"/>
      <use xlink:href="#DejaVuSans-11" transform="translate(1074.109375 0)"/>
      <use xlink:href="#DejaVuSans-13" transform="translate(1105.890625 0)"/>
      <use xlink:href="#DejaVuSans-1e" transform="translate(1169.515625 0)"/>
      <use xlink:href="#DejaVuSans-3" transform="translate(1203.203125 0)"/>
      <use xlink:href="#DejaVuSans-19" transform="translate(1234.984375 0)"/>
      <use xlink:href="#DejaVuSans-13" transform="translate(1298.609375 0)"/>
      <use xlink:href="#DejaVuSans-11" transform="translate(1362.234375 0)"/>
      <use xlink:href="#DejaVuSans-13" transform="translate(1394.015625 0)"/>
      <use xlink:href="#DejaVuSans-c" transform="translate(1457.640625 0)"/>
     </g>
    </g>
    <g id="PathCollection_2">
     <g>
      <use xlink:href="#me1e84cadf3" x="64.082344" y="303.850312" style="fill: #ff0000; stroke: #ff0000"/>
     </g>
    </g>
    <g id="text_20">
     <!-- Точка (K0; L0) -->
     <g transform="translate(82.082344 306.475312) scale(0.1 -0.1)">
      <defs>
       <path id="DejaVuSans-3b6" d="M -19 4666 
L 3928 4666 
L 3928 4134 
L 2272 4134 
L 2272 0 
L 1638 0 
L 1638 4134 
L -19 4134 
L -19 4666 
z
" transform="scale(0.015625)"/>
       <path id="DejaVuSans-2e" d="M 628 4666 
L 1259 4666 
L 1259 2694 
L 3353 4666 
L 4166 4666 
L 1850 2491 
L 4331 0 
L 3500 0 
L 1259 2247 
L 1259 0 
L 628 0 
L 628 4666 
z
" transform="scale(0.015625)"/>
       <path id="DejaVuSans-2f" d="M 628 4666 
L 1259 4666 
L 1259 531 
L 3531 531 
L 3531 0 
L 628 0 
L 628 4666 
z
" transform="scale(0.015625)"/>
      </defs>
      <use xlink:href="#DejaVuSans-3b6"/>
      <use xlink:href="#DejaVuSans-3d2" transform="translate(61.078125 0)"/>
      <use xlink:href="#DejaVuSans-3db" transform="translate(122.265625 0)"/>
      <use xlink:href="#DejaVuSans-3ce" transform="translate(181.34375 0)"/>
      <use xlink:href="#DejaVuSans-3c4" transform="translate(241.75 0)"/>
      <use xlink:href="#DejaVuSans-3" transform="translate(303.03125 0)"/>
      <use xlink:href="#DejaVuSans-b" transform="translate(334.8125 0)"/>
      <use xlink:href="#DejaVuSans-2e" transform="translate(373.828125 0)"/>
      <use xlink:href="#DejaVuSans-13" transform="translate(439.40625 0)"/>
      <use xlink:href="#DejaVuSans-1e" transform="translate(503.03125 0)"/>
      <use xlink:href="#DejaVuSans-3" transform="translate(536.71875 0)"/>
      <use xlink:href="#DejaVuSans-2f" transform="translate(568.5 0)"/>
      <use xlink:href="#DejaVuSans-13" transform="translate(624.21875 0)"/>
      <use xlink:href="#DejaVuSans-c" transform="translate(687.84375 0)"/>
     </g>
    </g>
   </g>
  </g>
 </g>
 <defs>
  <clipPath id="pe8318e6c71">
   <rect x="45.082344" y="26.16" width="520.117656" height="291.717656"/>
  </clipPath>
 </defs>
</svg>
